<svg width="100" height="100" viewBox="0 0 100 100" fill="none" xmlns="http://www.w3.org/2000/svg">
<g clip-path="url(#clip0_17_117)">
<g clip-path="url(#clip1_17_117)">
<rect x="28" y="50" width="12" height="20" rx="6" fill="#48E7D0"/>
<rect x="60" y="30" width="12" height="20" rx="6" fill="#2793FF"/>
<rect x="44" y="27" width="12" height="46" rx="6" fill="#FE9232"/>
<path d="M50 0C36.7392 -1.58134e-07 24.0215 5.26783 14.6447 14.6446C5.26788 24.0214 2.32907e-05 36.7391 0 49.9999L15.0461 49.9999C15.0461 40.7296 18.7287 31.8389 25.2839 25.2838C31.839 18.7287 40.7297 15.0461 50 15.0461V0Z" fill="#FE9232"/>
<path d="M100 50C100 36.7392 94.7322 24.0215 85.3554 14.6447C75.9786 5.26788 63.2609 2.32907e-05 50.0001 0L50.0001 15.0461C59.2704 15.0461 68.1611 18.7287 74.7162 25.2839C81.2713 31.839 84.9539 40.7297 84.9539 50H100Z" fill="#48E7D0"/>
<path d="M0 50C-5.74026e-07 56.5661 1.29329 63.0679 3.80602 69.1342C6.31876 75.2004 10.0017 80.7124 14.6447 85.3553C19.2876 89.9983 24.7995 93.6812 30.8658 96.194C36.9321 98.7067 43.4339 100 50 100L50 84.9539C45.4098 84.9539 40.8645 84.0498 36.6237 82.2932C32.3829 80.5366 28.5296 77.9619 25.2838 74.7161C22.0381 71.4704 19.4634 67.6171 17.7068 63.3763C15.9502 59.1355 15.0461 54.5902 15.0461 50H0Z" fill="#2793FF"/>
<path d="M50 100C56.5661 100 63.0679 98.7067 69.1342 96.194C75.2004 93.6812 80.7124 89.9983 85.3553 85.3553C89.9983 80.7124 93.6812 75.2005 96.194 69.1342C98.7067 63.0679 100 56.5661 100 50H84.9539C84.9539 54.5902 84.0498 59.1355 82.2932 63.3763C80.5366 67.6171 77.9619 71.4704 74.7162 74.7162C71.4704 77.9619 67.6171 80.5366 63.3763 82.2932C59.1355 84.0498 54.5902 84.9539 50 84.9539L50 100Z" fill="#26D7FF"/>
<circle cx="49.5" cy="7.5" r="7.5" fill="#FE9232"/>
<circle cx="7.5" cy="49.5" r="7.5" fill="#2793FF"/>
<circle cx="92.5" cy="49.5" r="7.5" fill="#48E7D0"/>
<circle cx="49.5" cy="92.5" r="7.5" fill="#26D7FF"/>
</g>
</g>
<defs>
<clipPath id="clip0_17_117">
<rect width="100" height="100" fill="white"/>
</clipPath>
<clipPath id="clip1_17_117">
<rect width="100" height="100" fill="white"/>
</clipPath>
</defs>
</svg>
